<svg width="100" height="100" xmlns="http://www.w3.org/2000/svg">

 <g>
  <title>background</title>
  <rect fill="none" id="canvas_background" height="102" width="102" y="-1" x="-1"/>
 </g>
 <g>
  <title>Layer 1</title>
  <g stroke="null" id="Layer_1">
   <path stroke="null" fill="#388c91" stroke-width="10" id="svg_1" d="m49.848482,1.181818c-26.933832,0 -48.848482,21.91465 -48.848482,48.848482c0,14.432691 6.297383,27.420281 16.282827,36.36973l0,0.034601l0.708303,0.610606c0.124157,0.107874 0.260525,0.197429 0.386717,0.303268c0.877237,0.740869 1.780934,1.451207 2.709055,2.131015c0.250348,0.183182 0.500697,0.360258 0.755116,0.537333c0.985111,0.69202 1.992611,1.351475 3.026571,1.970222c0.173005,0.103803 0.350081,0.2015 0.523086,0.301232c1.133692,0.659455 2.291808,1.280237 3.480454,1.848101c0.012212,0.006106 0.024424,0.010177 0.036636,0.016283c2.542156,1.211035 5.208469,2.202252 7.968409,2.963475c0.050884,0.014247 0.101768,0.03053 0.152652,0.042742c1.304662,0.356187 2.631712,0.655384 3.977081,0.901662c0.126192,0.022389 0.250348,0.044778 0.37654,0.067167c1.298555,0.22796 2.613394,0.409106 3.94655,0.533263c0.152652,0.014247 0.305303,0.022389 0.455919,0.034601c1.341298,0.111944 2.692773,0.183182 4.062565,0.183182s2.721268,-0.071237 4.062565,-0.183182c0.152652,-0.012212 0.305303,-0.020354 0.455919,-0.034601c1.333156,-0.122121 2.647995,-0.305303 3.94655,-0.533263c0.126192,-0.022389 0.250348,-0.044778 0.37654,-0.067167c1.345369,-0.246278 2.672419,-0.545475 3.977081,-0.901662c0.050884,-0.014247 0.101768,-0.028495 0.152652,-0.042742c2.759939,-0.761222 5.426252,-1.752439 7.968409,-2.963475c0.012212,-0.006106 0.024424,-0.010177 0.036636,-0.016283c1.188646,-0.567864 2.346762,-1.190682 3.480454,-1.848101c0.17504,-0.101768 0.350081,-0.197429 0.523086,-0.301232c1.035995,-0.618747 2.043495,-1.280237 3.026571,-1.970222c0.252384,-0.177076 0.504768,-0.354151 0.755116,-0.537333c0.928121,-0.679808 1.831818,-1.390146 2.709055,-2.131015c0.126192,-0.105838 0.262561,-0.195394 0.386717,-0.303268l0.708303,-0.610606l0,-0.034601c9.985444,-8.951484 16.282827,-21.937039 16.282827,-36.36973c0,-26.933832 -21.91465,-48.848482 -48.848482,-48.848482zm0,48.848482c-8.977944,0 -16.282827,-7.304883 -16.282827,-16.282827s7.304883,-16.282827 16.282827,-16.282827s16.282827,7.304883 16.282827,16.282827s-7.304883,16.282827 -16.282827,16.282827zm6.10606,4.070707c12.344419,0 22.388888,10.044469 22.388888,22.388888l0,8.055929c-0.085485,0.071237 -0.17504,0.136369 -0.260525,0.207606c-0.803965,0.653348 -1.628283,1.274131 -2.470919,1.868454c-0.187253,0.132298 -0.370434,0.268667 -0.557687,0.396894c-0.909803,0.620783 -1.84403,1.202894 -2.79454,1.754475c-0.173005,0.101768 -0.348045,0.2015 -0.523086,0.301232c-0.997323,0.559722 -2.012965,1.084843 -3.048959,1.565187c-0.107874,0.050884 -0.217783,0.099732 -0.327692,0.148581c-3.380722,1.536692 -6.942591,2.65003 -10.608262,3.309485c-0.116015,0.020354 -0.23203,0.042742 -0.348045,0.063096c-1.154045,0.197429 -2.318268,0.350081 -3.490631,0.457955c-0.160793,0.014247 -0.323621,0.024424 -0.486449,0.036636c-1.186611,0.091591 -2.379328,0.152652 -3.578151,0.152652s-2.39154,-0.061061 -3.578151,-0.156722c-0.160793,-0.012212 -0.323621,-0.022389 -0.486449,-0.036636c-1.172364,-0.107874 -2.336586,-0.25849 -3.490631,-0.457955c-0.116015,-0.020354 -0.23203,-0.040707 -0.348045,-0.063096c-3.665672,-0.659455 -7.22754,-1.772793 -10.608262,-3.309485c-0.109909,-0.050884 -0.219818,-0.097697 -0.327692,-0.148581c-1.035995,-0.480343 -2.051636,-1.005465 -3.048959,-1.565187c-0.17504,-0.099732 -0.348045,-0.199465 -0.523086,-0.301232c-0.95051,-0.549545 -1.884737,-1.133692 -2.79454,-1.754475c-0.189288,-0.128227 -0.37247,-0.264596 -0.557687,-0.396894c-0.842636,-0.594323 -1.666954,-1.213071 -2.470919,-1.868454c-0.085485,-0.069202 -0.17504,-0.136369 -0.260525,-0.207606l0,-8.051858c0,-12.344419 10.044469,-22.388888 22.388888,-22.388888l12.212121,0zm26.459594,26.614281l0,-4.225394c0,-12.763701 -9.085818,-23.445236 -21.126969,-25.920226c5.375368,-3.665672 8.914848,-9.838898 8.914848,-16.822196c0,-11.222939 -9.130595,-20.353534 -20.353534,-20.353534s-20.353534,9.130595 -20.353534,20.353534c0,6.983298 3.53948,13.156525 8.914848,16.822196c-12.041151,2.47499 -21.126969,13.156525 -21.126969,25.920226l0,4.225394c-7.563373,-8.021328 -12.212121,-18.816842 -12.212121,-30.684988c0,-24.690872 20.086903,-44.777775 44.777775,-44.777775s44.777775,20.086903 44.777775,44.777775c0,11.868146 -4.648747,22.66366 -12.212121,30.684988z"/>
  </g>
  <g id="svg_2"/>
 </g>
</svg>